<?xml version="1.0" encoding="utf-8"?>
<svg width="17" height="17" viewBox="0 0 17 17" fill="none" xmlns="http://www.w3.org/2000/svg">
    <g id="svgOnePart" display="inline">
        <path d="M8.5 0C3.80558 0 0 3.80558 0 8.5C0 13.1944 3.80558 17 8.5 17C13.1944 17 17 13.1944 17 8.5C16.994 3.80809 13.1919 0.00601673 8.5 0ZM8.86465 16.2525V14.7574C8.86465 14.556 8.70138 14.3928 8.5 14.3928C8.29862 14.3928 8.13535 14.556 8.13535 14.7574V16.2525C4.13691 16.0616 0.938428 12.8631 0.747533 8.86465H2.2426C2.44398 8.86465 2.60725 8.70138 2.60725 8.5C2.60725 8.29862 2.44398 8.13535 2.2426 8.13535H0.747533C0.938428 4.13691 4.13691 0.938428 8.13535 0.747533V2.2426C8.13535 2.44398 8.29862 2.60725 8.5 2.60725C8.70138 2.60725 8.86465 2.44398 8.86465 2.2426V0.747533C12.8631 0.938428 16.0616 4.13691 16.2525 8.13535H14.7574C14.556 8.13535 14.3928 8.29862 14.3928 8.5C14.3928 8.70138 14.556 8.86465 14.7574 8.86465H14.761H16.2561C16.0651 12.8644 12.8645 16.0634 8.86465 16.2525Z" fill="#005FA3"/>
    </g>
    
    <g transform="translate(8, 4)" id="svgTwoPart" display="inline">
        <path cx='8' d="M4.34706 7.89125L0.864647 4.35049V0.671169C0.864647 0.469791 0.701374 0.306519 0.499996 0.306519C0.298618 0.306519 0.135345 0.469791 0.135345 0.671169V4.5C0.135756 4.59568 0.173725 4.68734 0.241094 4.75526L3.82561 8.40176C3.96659 8.54575 4.1976 8.54822 4.34159 8.40723C4.48558 8.26625 4.48804 8.03524 4.34706 7.89125Z" fill="#005FA3"/>
    </g>
</svg>