<?xml version="1.0" encoding="utf-8"?>
<svg width="23" height="17" viewBox="0 0 23 17" fill="none" xmlns="http://www.w3.org/2000/svg">
    <g id="svgOnePart" display="inline" width="300" height="200">
        <path d="M19.6115 0H2.73165C1.22485 0 0 1.22485 0 2.73165V14.2684C0 15.7752 1.22485 17 2.73165 17H19.6069C21.1137 17 22.3385 15.7752 22.3385 14.2684V2.73627C22.3431 1.22947 21.1183 0 19.6115 0ZM21.0952 14.2684C21.0952 15.0865 20.4296 15.752 19.6115 15.752H2.73165C1.91354 15.752 1.24796 15.0865 1.24796 14.2684V2.73627C1.24796 1.91816 1.91354 1.25258 2.73165 1.25258H19.6069C20.425 1.25258 21.0905 1.91816 21.0905 2.73627V14.2684H21.0952Z" fill="#005FA3"/>
    </g>
    <g transform="translate(2, 2)" id="svgTwoPart" display="inline">
        <path d="M12.088 6.35673L17.5513 1.45733C17.8055 1.22623 17.8287 0.83335 17.5975 0.574513C17.3664 0.320299 16.9736 0.297189 16.7147 0.528293L9.18075 7.29039L7.71093 5.97772C7.7063 5.9731 7.70168 5.96848 7.70168 5.96386C7.66933 5.9315 7.63697 5.90377 7.59999 5.87604L1.61903 0.523671C1.36019 0.292567 0.967314 0.315677 0.73621 0.574513C0.505106 0.83335 0.528217 1.22623 0.787053 1.45733L6.31506 6.39833L0.810163 11.552C0.560571 11.7877 0.546705 12.1806 0.782431 12.4348C0.907227 12.5642 1.07362 12.6335 1.24002 12.6335C1.39255 12.6335 1.54507 12.5781 1.66525 12.4671L7.25334 7.23955L8.76938 8.59382C8.88955 8.70013 9.03746 8.75097 9.18537 8.75097C9.33327 8.75097 9.4858 8.69551 9.60135 8.5892L11.159 7.19333L16.7147 12.4717C16.8349 12.5873 16.9921 12.6428 17.1446 12.6428C17.311 12.6428 17.4728 12.5781 17.5975 12.4486C17.8333 12.199 17.824 11.8015 17.5744 11.5658L12.088 6.35673Z" fill="#005FA3"/>
    </g>
</svg>