<?xml version="1.0" encoding="utf-8"?>
<svg width="40" height="40" viewBox="0 0 40 40" fill="none" xmlns="http://www.w3.org/2000/svg">
    <g id="svgOnePart" display="inline">
        <path d="M0.23175 16.9409V16.9872C0.23175 17.0104 0.23175 17.0568 0.208575 17.0799V17.1031C0.208575 17.1263 0.208575 17.1495 0.208575 17.1726V17.219V17.2422V17.2653V17.2885C0.208575 17.358 0.1854 17.4276 0.1854 17.4971C0.1854 17.5666 0.162225 17.613 0.162225 17.6825C0.162225 17.7057 0.162225 17.7288 0.162225 17.752C0.162225 17.8215 0.13905 17.8911 0.13905 17.9606C0.13905 18.0069 0.13905 18.0765 0.115875 18.1228V18.1692C0.115875 18.1923 0.115875 18.2155 0.115875 18.2387C0.115875 18.2619 0.115875 18.285 0.115875 18.3082C0.115875 18.3314 0.115875 18.3314 0.115875 18.3546C0.115875 18.3777 0.115875 18.3777 0.115875 18.4009C0.115875 18.4241 0.115875 18.4473 0.115875 18.4704V18.4936C0.115875 18.5631 0.0926999 18.6558 0.0926999 18.7254C0.0926999 18.7717 0.0926999 18.7949 0.0926999 18.8412C0.0926999 18.8876 0.0926999 18.9108 0.0926999 18.9571C0.0926999 18.9571 0.0926999 18.9571 0.0926999 18.9803V19.0035V19.0266V19.0498C0.0926999 19.0962 0.0926999 19.1425 0.0926999 19.1889C0.0926999 19.212 0.0926999 19.2352 0.0926999 19.2352C0.0926999 19.3279 0.0926999 19.3974 0.0926999 19.467C0.0926999 19.4901 0.0926999 19.4901 0.0926999 19.5133V19.5365C0.0926999 19.606 0.0926999 19.6755 0.0926999 19.7219V19.7682V19.7914V19.8609C0 19.9305 0 19.9305 0 19.9536C0 19.9768 0 19.9768 0 20C0 20.0232 0 20.0232 0 20.0463C0 20.0695 0 20.0927 0 20.0927V20.1622V20.2086C0.0463499 24.0093 1.5759 27.5782 4.28737 30.2433C6.99884 32.9084 10.591 34.3916 14.4148 34.3916C15.0174 34.3916 15.6199 34.3453 16.2225 34.2758C16.5006 34.2526 16.7555 34.2062 17.0336 34.1599C15.0637 32.978 13.3488 31.3789 12.0046 29.4554C11.518 28.7601 11.1008 28.0417 10.73 27.2769C10.6373 27.1147 10.5678 26.9293 10.4983 26.7671C10.4983 26.7439 10.4751 26.7207 10.4751 26.7207C9.54809 24.6118 9.06141 22.3407 9.06141 20C9.06141 16.5933 10.0811 13.3256 12.0278 10.5214C12.4681 9.87252 12.9548 9.26997 13.4878 8.71377C15.2028 6.88295 17.2885 5.4461 19.6524 4.54228C20.3708 4.26418 21.0892 4.03243 21.8308 3.8702C23.0591 3.56893 24.3337 3.42988 25.6315 3.42988C28.6443 3.42988 31.5411 4.241 34.0672 5.7242C34.044 5.70103 34.0209 5.67785 33.9977 5.65467C33.9745 5.6315 33.9282 5.58515 33.905 5.56198L33.8818 5.5388C33.8586 5.51562 33.8123 5.49245 33.7891 5.4461C33.7659 5.42292 33.7196 5.39975 33.6964 5.3534C33.6964 5.3534 33.6964 5.3534 33.6732 5.33022C33.6269 5.30705 33.6037 5.2607 33.5574 5.23753L33.511 5.19117L33.4878 5.168C33.4415 5.12165 33.3951 5.0753 33.3256 5.02895C33.2561 4.9826 33.2097 4.93625 33.1634 4.8899C33.1402 4.86673 33.117 4.86673 33.117 4.84355C33.0707 4.82038 33.0475 4.77403 33.0012 4.75085L32.9316 4.68133L32.8853 4.63498L32.8621 4.6118L32.8389 4.58863C32.7926 4.54228 32.7462 4.5191 32.6999 4.47275C32.6767 4.44958 32.6304 4.4264 32.6072 4.38005C32.4913 4.28735 32.3754 4.19465 32.2827 4.12513C32.2596 4.10195 32.2132 4.07878 32.19 4.0556L32.1437 4.03243L32.1205 4.00925C32.1205 4.00925 32.1205 4.00925 32.0973 4.00925L32.0278 3.9629L32.0046 3.93973L31.9119 3.8702L31.8888 3.84703C31.8656 3.82385 31.8656 3.82385 31.8424 3.80068L31.8192 3.7775C31.7961 3.75433 31.7497 3.73115 31.7265 3.70798L31.7034 3.6848C31.6107 3.61528 31.5411 3.56893 31.4484 3.4994C31.4021 3.47623 31.3789 3.45305 31.3326 3.42988L31.3094 3.4067C31.263 3.36035 31.1935 3.33718 31.1472 3.29083C31.124 3.29083 31.124 3.26765 31.1008 3.26765C31.0545 3.24448 31.0081 3.2213 30.9849 3.19813C30.9154 3.15178 30.8691 3.1286 30.7995 3.08225C30.73 3.0359 30.6837 3.01273 30.6141 2.96638L30.5214 2.89685C30.4983 2.89685 30.4983 2.87368 30.4751 2.87368C30.4519 2.87368 30.4287 2.8505 30.4056 2.8505C30.3824 2.8505 30.3824 2.82733 30.3592 2.82733C30.3129 2.80415 30.2665 2.78098 30.2202 2.7578L30.197 2.73463C30.1738 2.73463 30.1738 2.71145 30.1506 2.71145C30.1043 2.68828 30.0579 2.6651 30.0348 2.64193C30.0348 2.64193 30.0348 2.64193 30.0116 2.64193C29.7335 2.4797 29.4322 2.34065 29.1541 2.17843H29.1309C29.0614 2.15525 28.9919 2.1089 28.9455 2.08573L28.5052 1.90033C28.5052 1.90033 28.5052 1.90033 28.482 1.90033C28.2735 1.80763 28.0881 1.71493 27.9027 1.6454C27.8563 1.62223 27.81 1.59905 27.7636 1.59905H27.7404H27.7173L27.6477 1.57588C27.6246 1.57588 27.6014 1.5527 27.555 1.5527C27.5319 1.5527 27.5319 1.5527 27.5087 1.52953C27.3233 1.46 27.1611 1.39048 27.022 1.34413L26.9293 1.32095H26.9061L26.8134 1.29778C26.5585 1.20508 26.3268 1.11238 26.0487 1.04286C26.0487 1.04286 26.0487 1.04286 26.0255 1.04286C25.9791 1.01968 25.9328 1.01968 25.8864 0.996505C25.8401 0.97333 25.7937 0.97333 25.7474 0.950155C25.7242 0.950155 25.6779 0.92698 25.6547 0.92698C25.5388 0.903805 25.4461 0.857455 25.3302 0.834281C25.3071 0.834281 25.3071 0.834281 25.2839 0.834281C25.2839 0.695231 25.2607 0.695231 25.2375 0.695231H25.2144H25.1912C24.9826 0.648881 24.774 0.579356 24.5423 0.533006C24.4264 0.509831 24.2874 0.486656 24.1715 0.440306C23.9629 0.393956 23.7312 0.347606 23.5226 0.301256C23.4531 0.278081 23.3604 0.278081 23.2908 0.254906C23.2213 0.231731 23.1286 0.231731 23.0591 0.208556C23.0127 0.208556 22.9896 0.208556 22.9432 0.185381C22.8969 0.185381 22.8505 0.162206 22.8042 0.162206C22.5724 0.139031 22.3407 0.0926815 22.1089 0.0695065C21.6686 0.0231566 21.2051 -1.8388e-05 20.7648 -0.0231934C20.5098 -1.8388e-05 20.2549 -1.8388e-05 20 -1.8388e-05C19.5829 -1.8388e-05 19.1425 0.0231566 18.7254 0.0463316C18.679 0.0463316 18.6327 0.0463316 18.5863 0.0463316C18.1228 0.0695065 17.6593 0.115856 17.1958 0.185381C17.1031 0.208556 17.0336 0.208556 16.9409 0.231731L0.23175 16.9409Z" fill="#005FA3"/>
    </g>
    
    <g transform="translate(5, 5)" id="svgTwoPart" display="inline">
        <path d="M34.7682 18.0359V18.0127C34.7682 17.9896 34.7682 17.9664 34.7914 17.92V17.8969C34.7914 17.8505 34.8146 17.8273 34.8146 17.781V17.7578V17.7346C34.8146 17.7115 34.8146 17.7115 34.8146 17.7115L34.8378 17.5956L34.8609 17.5029C34.8609 17.4102 34.8841 17.3407 34.8841 17.2711C34.8841 17.2016 34.9073 17.1321 34.9073 17.0626C34.9073 16.993 34.9305 16.9467 34.9305 16.9003V16.854C34.9305 16.8076 34.9305 16.7845 34.9305 16.7381V16.7149V16.6918C34.9305 16.6454 34.9305 16.5991 34.9536 16.5295V16.5064C34.9536 16.4368 34.9768 16.3673 34.9768 16.2746C34.9768 16.2051 34.9768 16.1124 35 16.0429V16.0197V15.9965V15.9733C35 15.9038 35 15.8343 35 15.7879C35 15.6952 35 15.6257 35 15.533V15.4867C35 15.4171 35 15.3708 35 15.3013V15.1622C35 15.1159 35 15.0695 35 15C35 14.9536 35 14.8841 35 14.8378V14.7914C34.9536 10.9907 33.4241 7.42178 30.7126 4.75666C28.0011 2.09153 24.409 0.608337 20.5851 0.608337C19.7045 0.608337 18.8239 0.677862 17.9896 0.840087C19.9594 2.02201 21.6744 3.62108 23.0185 5.54461C24.9652 8.3256 25.9849 11.5933 25.9849 15.0232C25.9849 18.4299 24.9652 21.6976 23.0185 24.5017C21.1182 27.2132 18.4762 29.299 15.394 30.4809C13.4936 31.2225 11.4774 31.5933 9.41481 31.5933C6.40207 31.5933 3.5052 30.7821 0.979126 29.299H1.0023C1.02548 29.3221 1.02548 29.3221 1.04865 29.3453L1.095 29.3916C1.11818 29.4148 1.16453 29.4612 1.1877 29.4844C1.23405 29.5307 1.30358 29.6002 1.3731 29.6466C1.41945 29.6929 1.4658 29.7161 1.48898 29.7624C1.5585 29.832 1.62803 29.9015 1.72073 29.971C1.76708 30.0174 1.81343 30.0637 1.85978 30.1101L1.88295 30.1333L2.022 30.2491L2.04517 30.2723C2.09152 30.2955 2.1147 30.3418 2.16105 30.365L2.18422 30.3882L2.2074 30.4114C2.23057 30.4345 2.27692 30.4809 2.32327 30.504H2.34645H2.36962C2.3928 30.5272 2.43915 30.5504 2.46232 30.5736C2.5782 30.6663 2.6709 30.7358 2.78677 30.8285C2.80995 30.8517 2.83312 30.8748 2.8563 30.8748C2.87947 30.898 2.90265 30.9212 2.949 30.9444C2.97217 30.9676 2.97217 30.9675 2.99535 30.9675L3.01852 30.9907C3.06487 31.0139 3.11122 31.0602 3.15757 31.0834L3.20392 31.1066C3.2271 31.1298 3.25027 31.1298 3.27345 31.1529C3.29662 31.1761 3.34297 31.1993 3.36615 31.2225L3.4125 31.2456C3.5052 31.3152 3.57472 31.3615 3.66742 31.431C3.71377 31.4542 3.73695 31.4774 3.7833 31.5006L3.80647 31.5237L3.89917 31.5933L3.99187 31.6628C4.03822 31.686 4.08457 31.7323 4.1541 31.7555C4.20045 31.7787 4.26997 31.825 4.31632 31.8482H4.50172L4.73347 32.0568C4.75665 32.0799 4.803 32.1031 4.84935 32.1263C4.91887 32.1726 4.9884 32.219 5.05792 32.2422C5.10427 32.2653 5.1738 32.3117 5.22015 32.3349C5.52142 32.4971 5.82269 32.6593 6.12397 32.7984C6.19349 32.8215 6.26302 32.8679 6.33254 32.8911C6.33254 32.8911 6.35572 32.8911 6.35572 32.9142C6.42524 32.9374 6.47159 32.9838 6.54112 33.0069C6.72652 33.0996 6.91192 33.1923 7.12049 33.2619C7.16684 33.285 7.21319 33.3082 7.25954 33.3314C7.28272 33.3314 7.28272 33.3546 7.30589 33.3546C7.37542 33.3777 7.42177 33.4009 7.49129 33.4241C7.65352 33.4936 7.81574 33.54 7.97797 33.6095C8.02432 33.6327 8.09384 33.6558 8.14019 33.679C8.39512 33.7717 8.65004 33.8644 8.88179 33.9339C8.92814 33.9571 8.97449 33.9571 9.02084 33.9803C9.09037 34.0035 9.15989 34.0266 9.25259 34.0498L9.32211 34.073C9.41481 34.0962 9.50751 34.1193 9.57704 34.1425C9.62339 34.1657 9.66974 34.1657 9.71609 34.1889C10.2723 34.3279 10.8285 34.467 11.3847 34.5597C11.4542 34.5828 11.5237 34.5828 11.6164 34.606C11.7091 34.6292 11.7787 34.6292 11.8482 34.6524C11.9177 34.6755 12.0104 34.6755 12.0799 34.6755C13.0069 34.8146 13.9339 34.8609 14.8841 34.8609C15.8111 34.8609 16.7613 34.7914 17.6883 34.6755H17.7115C17.781 34.6755 17.8505 34.6524 17.9432 34.6524L34.6524 17.9432C34.7682 18.0359 34.7682 18.0359 34.7682 18.0359Z" fill="#222222"/>
    </g>
</svg>